<?xml version="1.0" encoding="utf-8"?>
<!-- Generator: Adobe Illustrator 16.0.0, SVG Export Plug-In . SVG Version: 6.00 Build 0)  -->
<!DOCTYPE svg PUBLIC "-//W3C//DTD SVG 1.1//EN" "http://www.w3.org/Graphics/SVG/1.1/DTD/svg11.dtd">
<svg version="1.1" id="图层_1" xmlns="http://www.w3.org/2000/svg" xmlns:xlink="http://www.w3.org/1999/xlink" x="0px" y="0px"
	 width="57.468px" height="30px" viewBox="0 0 57.468 30" enable-background="new 0 0 57.468 30" xml:space="preserve">
<g>
	<g>
		<path fill="#FFFFFF" d="M28.733,22.787c-0.76,0-1.485,0.1-2.144,0.271l0,0c-0.003,0-0.009,0.002-0.011,0.004
			c-0.133,0.033-0.262,0.076-0.39,0.117c-2.221,0.521-5.448-1.268-2.83-4.58l-0.011-0.006c1.484-2.158,1.97-4.486,1.083-6.425
			c-1.697-3.708-7.754-4.566-13.525-1.923c-5.772,2.648-9.072,7.797-7.375,11.502c1.698,3.707,7.753,4.568,13.525,1.918
			c0.185-0.082,0.36-0.18,0.538-0.268v0.01c2.9-1.629,5.677,0.705,5.545,2.686c-0.014,0.1-0.023,0.199-0.023,0.303
			c0,1.99,2.515,3.604,5.617,3.604c3.103,0,5.617-1.613,5.617-3.604C34.35,24.402,31.836,22.787,28.733,22.787z"/>
	</g>
	<g>
		
			<ellipse transform="matrix(0.4661 0.8847 -0.8847 0.4661 7.3036 -2.7601)" fill="#FFFFFF" cx="5.939" cy="4.671" rx="4.084" ry="6.357"/>
	</g>
	<g>
		<path fill="#FFFFFF" d="M53.433,1.058c-3.106-1.633-6.479-1.346-7.531,0.65c-0.787,1.498-0.047,3.527,1.688,5.145l0,0
			c1.232,1.51,0.55,3.728-1.991,2.99c-0.203-0.08-0.406-0.148-0.611-0.217c-0.037-0.018-0.071-0.026-0.11-0.044
			c-0.32-0.144-0.554-0.21-0.739-0.231c-4.955-1.445-9.642-0.369-11.102,2.818c-1.699,3.709,1.603,8.855,7.373,11.498
			c5.771,2.65,11.827,1.789,13.525-1.918c1.195-2.605-0.09-5.921-2.959-8.583c-0.004-0.002-0.007-0.009-0.012-0.013
			c-1.701-1.924-1.368-4.611,0.33-4.18c0.058,0.018,0.117,0.036,0.176,0.053c0.02,0.009,0.04,0.009,0.061,0.018V9.04
			c2.475,0.688,4.787,0.188,5.624-1.404C58.205,5.642,56.54,2.694,53.433,1.058z"/>
	</g>
</g>
</svg>
